<svg width="208" height="80" viewBox="0 0 208 80" fill="none" xmlns="http://www.w3.org/2000/svg">
<path d="M7.71347 51.9599C7.36926 51.9599 7.11892 51.8974 6.96246 51.7724C6.806 51.6474 6.72777 51.4339 6.72777 51.1318V46.9599C6.44615 46.762 5.92461 46.5901 5.16318 46.4443C4.41217 46.288 3.68724 46.1891 2.98838 46.1474C2.77977 46.5016 2.60245 47.0433 2.45642 47.7724L2.36254 48.2568C2.19565 49.111 2.04441 49.8037 1.90881 50.3349C1.77321 50.8662 1.60632 51.2933 1.40814 51.6162C0.584117 51.6162 0.114737 51.4026 0 50.9756C0.198183 50.6943 0.464164 49.6943 0.797945 47.9755C1.07957 46.5068 1.429 44.5537 1.84623 42.1162C2.32604 39.2828 2.76412 36.9026 3.16049 34.9755C3.55685 33.038 3.97408 31.4078 4.41217 30.0849C4.89198 28.6057 5.36136 27.8661 5.82031 27.8661C6.26883 27.8661 6.61304 27.9599 6.85294 28.1474C6.85294 28.939 7.06156 30.9963 7.47878 34.3193C7.89601 37.6422 8.10462 39.8297 8.10462 40.8818C8.10462 41.8818 8.21936 43.4964 8.44883 45.7255C8.66788 48.0172 8.7774 49.736 8.7774 50.8818C8.7774 51.6006 8.42276 51.9599 7.71347 51.9599ZM6.03935 45.0849C6.2271 45.0849 6.44615 45.0537 6.69648 44.9912C6.66519 44.5328 6.55567 43.3714 6.36792 41.5068C5.87768 36.5693 5.63256 33.6214 5.63256 32.663C5.63256 32.5068 5.63777 32.413 5.6482 32.3818C5.43959 32.5901 5.14753 33.5536 4.77203 35.2724C4.39652 36.9912 4.0471 38.8401 3.72375 40.8193C3.40039 42.788 3.22307 44.0901 3.19178 44.7255C4.09925 44.9651 5.04844 45.0849 6.03935 45.0849Z" fill="#111111"/>
<path d="M17.0564 49.3662C17.0564 45.7828 17.0146 43.0016 16.9312 41.0224V40.8818C16.9416 40.8505 16.9468 40.7724 16.9468 40.6474C16.9468 40.5016 16.9416 40.3714 16.9312 40.2568L16.8999 39.8662C16.8999 38.4703 16.8477 36.5536 16.7434 34.1161C16.6287 31.4286 16.5713 29.5068 16.5713 28.3505C16.5713 28.1005 16.4722 27.887 16.2741 27.7099C16.0863 27.5224 15.8621 27.4286 15.6013 27.4286C15.3822 27.4286 15.1945 27.4911 15.038 27.6161C14.892 27.7411 14.819 27.8974 14.819 28.0849C14.819 30.512 14.9285 34.1474 15.1476 38.9912C15.3562 43.9703 15.4605 47.611 15.4605 49.9131C15.4605 50.0693 15.4292 50.2985 15.3666 50.6006C15.2936 50.8922 15.2571 51.1318 15.2571 51.3193C15.2571 51.5901 15.3666 51.8245 15.5856 52.0224C15.8047 52.2308 16.055 52.3349 16.3366 52.3349C16.7226 52.3349 17.0251 52.2047 17.2441 51.9443C17.4319 51.9443 17.604 51.9495 17.7604 51.9599L18.2767 51.9912C18.5271 51.9912 18.7305 51.9703 18.8869 51.9287L19.0434 51.9756C19.1581 52.0172 19.2677 52.0381 19.372 52.0381C19.6014 52.0381 19.7944 51.9495 19.9509 51.7724C20.1073 51.5849 20.1856 51.3714 20.1856 51.1318C20.1856 50.8089 19.9561 50.4912 19.4971 50.1787H17.0564V49.3662Z" fill="#111111"/>
<path d="M25.9612 39.6474C25.9612 40.8037 25.9351 42.8245 25.8829 45.7099C25.8308 48.6058 25.8047 50.3922 25.8047 51.0693C25.8047 51.361 25.8725 51.6162 26.0081 51.8349C26.1437 52.0433 26.3315 52.1474 26.5714 52.1474C26.926 52.1474 27.192 52.0276 27.3693 51.7881C27.5466 51.5485 27.6353 51.2256 27.6353 50.8193C27.6353 49.8193 27.5936 48.137 27.5101 45.7724C27.4267 43.4182 27.3849 41.7776 27.3849 40.8505C28.6784 40.1526 29.6693 39.1682 30.3577 37.8974C31.0461 36.6266 31.3903 35.1995 31.3903 33.6161C31.3903 32.8661 31.2808 32.1318 31.0618 31.413C30.8427 30.6943 30.5298 30.038 30.123 29.4443C29.7058 28.8505 29.1686 28.3818 28.5115 28.038C27.8543 27.6838 27.1398 27.5068 26.368 27.5068C25.8673 27.5068 25.4553 27.7463 25.1319 28.2255C25.6848 30.8401 25.9612 34.6474 25.9612 39.6474ZM29.7475 33.8818C29.7475 34.9755 29.5493 35.9599 29.1529 36.8349C28.767 37.6995 28.1516 38.5224 27.3067 39.3037C27.2963 38.1787 27.2337 36.4911 27.119 34.2411C27.0147 31.9911 26.9521 30.3036 26.9312 29.1786L27.7761 29.788C28.4228 30.2776 28.8192 30.6161 28.9652 30.8036C28.9861 30.8349 29.0799 30.9807 29.2468 31.2411C29.4241 31.4911 29.5337 31.7463 29.5754 32.0068C29.6901 32.6734 29.7475 33.2932 29.7475 33.8661V33.8818Z" fill="#111111"/>
<path d="M37.6353 28.3818C37.6353 29.6109 37.6405 30.5536 37.651 31.2099C37.6822 35.2724 37.7605 38.6422 37.8856 41.3193C37.9795 43.4235 38.089 45.2516 38.2142 46.8037C38.3394 48.3453 38.5063 49.5537 38.7149 50.4287C38.9339 51.4078 39.1843 51.8974 39.4659 51.8974C39.6641 51.8974 39.8257 51.8141 39.9509 51.6474C40.0865 51.4703 40.1543 51.2724 40.1543 51.0537C40.1543 49.8974 40.0656 48.0797 39.8883 45.6005C39.711 43.1214 39.6223 41.3245 39.6223 40.2099C39.9979 40.0432 40.6289 39.9599 41.5155 39.9599C41.672 39.9599 42.0266 40.012 42.5794 40.1162C42.7672 43.5641 42.8611 47.3245 42.8611 51.3974C42.8611 51.7099 42.9289 51.9651 43.0645 52.1631C43.2001 52.361 43.4035 52.4599 43.6747 52.4599C43.9354 52.4599 44.1545 52.3401 44.3318 52.1006C44.5195 51.861 44.6134 51.5953 44.6134 51.3037C44.6134 48.8558 44.5143 45.3401 44.3161 40.7568C44.1075 35.9443 44.0032 32.4286 44.0032 30.2099C44.0032 29.8453 43.998 29.6057 43.9876 29.4911C43.9771 29.2828 43.9406 29.0588 43.8781 28.8193C43.8259 28.5797 43.7529 28.3974 43.659 28.2724C43.5443 28.1265 43.3774 28.0068 43.1583 27.913C42.9497 27.8088 42.7098 27.7568 42.4386 27.7568V28.6005C42.4386 30.1005 42.4595 31.8922 42.5012 33.9755C42.5429 36.0693 42.5638 37.7776 42.5638 39.1005C42.1048 39.1214 41.5833 39.1578 40.9992 39.2099C40.4672 39.2724 39.9509 39.3141 39.4502 39.3349C39.4085 39.1162 39.3877 38.8401 39.3877 38.5068C39.3877 38.2776 39.3929 38.0745 39.4033 37.8974C39.4137 37.7203 39.4189 37.5224 39.4189 37.3037C39.4189 36.4807 39.3824 35.3818 39.3094 34.0068C39.2364 32.6526 39.1999 31.5588 39.1999 30.7255C39.1999 29.8401 39.2364 29.038 39.3094 28.3193C39.2156 28.1943 39.0487 28.0797 38.8088 27.9755C38.5793 27.8609 38.3707 27.8036 38.1829 27.8036C37.8178 27.8036 37.6353 27.9963 37.6353 28.3818Z" fill="#111111"/>
<path d="M58.2277 51.9599C57.8834 51.9599 57.6331 51.8974 57.4767 51.7724C57.3202 51.6474 57.242 51.4339 57.242 51.1318V46.9599C56.9603 46.762 56.4388 46.5901 55.6774 46.4443C54.9264 46.288 54.2014 46.1891 53.5026 46.1474C53.294 46.5016 53.1166 47.0433 52.9706 47.7724L52.8767 48.2568C52.7098 49.111 52.5586 49.8037 52.423 50.3349C52.2874 50.8662 52.1205 51.2933 51.9223 51.6162C51.0983 51.6162 50.6289 51.4026 50.5142 50.9756C50.7124 50.6943 50.9784 49.6943 51.3121 47.9755C51.5938 46.5068 51.9432 44.5537 52.3604 42.1162C52.8402 39.2828 53.2783 36.9026 53.6747 34.9755C54.071 33.038 54.4883 31.4078 54.9264 30.0849C55.4062 28.6057 55.8755 27.8661 56.3345 27.8661C56.783 27.8661 57.1272 27.9599 57.3671 28.1474C57.3671 28.939 57.5757 30.9963 57.993 34.3193C58.4102 37.6422 58.6188 39.8297 58.6188 40.8818C58.6188 41.8818 58.7335 43.4964 58.963 45.7255C59.1821 48.0172 59.2916 49.736 59.2916 50.8818C59.2916 51.6006 58.9369 51.9599 58.2277 51.9599ZM56.5535 45.0849C56.7413 45.0849 56.9603 45.0537 57.2107 44.9912C57.1794 44.5328 57.0699 43.3714 56.8821 41.5068C56.3919 36.5693 56.1467 33.6214 56.1467 32.663C56.1467 32.5068 56.152 32.413 56.1624 32.3818C55.9538 32.5901 55.6617 33.5536 55.2862 35.2724C54.9107 36.9912 54.5613 38.8401 54.2379 40.8193C53.9146 42.788 53.7373 44.0901 53.706 44.7255C54.6134 44.9651 55.5626 45.0849 56.5535 45.0849Z" fill="#111111"/>
<path d="M142.573 50.8349L142.604 50.7256C142.604 49.4964 142.505 47.7568 142.307 45.5068C142.098 43.1318 141.994 41.3974 141.994 40.3037L142.354 40.288C142.656 40.2776 142.98 40.2464 143.324 40.1943C143.512 40.1734 143.668 40.1422 143.793 40.1005C143.919 40.0484 144.07 39.9807 144.247 39.8974C144.518 39.7724 144.654 39.5589 144.654 39.2568C144.654 39.0068 144.565 38.7828 144.388 38.5849C144.221 38.3766 144.018 38.2724 143.778 38.2724C143.506 38.2724 143.147 38.3297 142.698 38.4443C142.25 38.5484 142.015 38.6057 141.994 38.6162C141.973 37.6266 141.89 36.2099 141.744 34.3661C141.587 32.4599 141.509 31.012 141.509 30.0224C141.509 29.7828 141.806 29.663 142.401 29.663C142.589 29.663 142.745 29.6682 142.87 29.6786L143.183 29.6943C143.433 29.6943 143.642 29.637 143.809 29.5224C143.986 29.3974 144.075 29.2255 144.075 29.0068C144.075 28.5901 143.965 28.3036 143.746 28.1474C143.538 27.9911 143.194 27.913 142.714 27.913C142.307 27.913 142.031 27.9182 141.885 27.9286C141.634 27.939 141.353 27.9807 141.04 28.0536C140.737 28.1161 140.497 28.2047 140.32 28.3193C140.111 28.4547 139.939 28.6422 139.804 28.8818C139.678 29.1109 139.616 29.3818 139.616 29.6943C139.751 29.9026 139.892 31.3557 140.038 34.0536C140.195 36.7411 140.325 39.7412 140.429 43.0537C140.534 46.3558 140.586 48.7308 140.586 50.1787C140.586 51.5433 140.894 52.2256 141.509 52.2256C141.832 52.2256 142.093 52.1422 142.291 51.9756C142.49 51.8089 142.589 51.5901 142.589 51.3193C142.589 51.1735 142.568 51.0433 142.526 50.9287L142.573 50.8349Z" fill="#111111"/>
<path d="M153.793 49.5849C153.793 46.0016 153.752 43.2203 153.668 41.2412V41.1005C153.679 41.0693 153.684 40.9912 153.684 40.8662C153.684 40.7203 153.679 40.5901 153.668 40.4755L153.637 40.0849C153.637 38.6891 153.585 36.7724 153.48 34.3349C153.366 31.6474 153.308 29.7255 153.308 28.5693C153.308 28.3193 153.209 28.1057 153.011 27.9286C152.823 27.7411 152.599 27.6474 152.338 27.6474C152.119 27.6474 151.931 27.7099 151.775 27.8349C151.629 27.9599 151.556 28.1161 151.556 28.3036C151.556 30.7307 151.666 34.3661 151.885 39.2099C152.093 44.1891 152.197 47.8297 152.197 50.1318C152.197 50.2881 152.166 50.5172 152.104 50.8193C152.031 51.111 151.994 51.3506 151.994 51.5381C151.994 51.8089 152.104 52.0433 152.323 52.2412C152.542 52.4495 152.792 52.5537 153.074 52.5537C153.46 52.5537 153.762 52.4235 153.981 52.1631C154.169 52.1631 154.341 52.1683 154.497 52.1787L155.014 52.2099C155.264 52.2099 155.467 52.1891 155.624 52.1474L155.78 52.1943C155.895 52.236 156.005 52.2568 156.109 52.2568C156.338 52.2568 156.531 52.1683 156.688 51.9912C156.844 51.8037 156.923 51.5901 156.923 51.3506C156.923 51.0276 156.693 50.7099 156.234 50.3974H153.793V49.5849Z" fill="#111111"/>
<path d="M165.608 27.4286C165.202 27.4286 164.821 27.5172 164.466 27.6943C164.122 27.8818 163.835 28.1265 163.606 28.4286C163.376 28.7203 163.173 29.0953 162.995 29.5536C162.662 30.4391 162.443 31.4443 162.338 32.5693C162.234 33.5693 162.182 34.7047 162.182 35.9755L162.213 37.9912C162.224 38.5537 162.229 39.1266 162.229 39.7099C162.229 40.0432 162.239 40.6057 162.26 41.3974C162.291 42.0849 162.344 42.8766 162.417 43.7724C162.5 44.6578 162.604 45.4755 162.729 46.2255C162.865 47.0797 163.053 47.9339 163.293 48.7881C163.533 49.6422 163.804 50.3662 164.106 50.9599C164.43 51.6058 164.831 52.1214 165.311 52.5068C165.801 52.8922 166.328 53.0849 166.891 53.0849C167.486 53.0849 168.023 52.8349 168.503 52.3349C168.972 51.8662 169.332 51.3141 169.582 50.6787C169.833 50.0433 169.958 49.4287 169.958 48.8349C169.958 48.0016 170.026 47.2985 170.161 46.7255V46.5849C170.161 46.137 170.208 45.4703 170.302 44.5849C170.396 43.6891 170.443 43.0068 170.443 42.538V40.6943C170.443 39.4234 170.406 38.0016 170.333 36.4286C170.302 35.6474 170.24 34.9391 170.146 34.3036C170.052 33.6682 169.921 32.9391 169.754 32.1161C169.608 31.4286 169.416 30.8193 169.176 30.288C168.936 29.7568 168.644 29.2516 168.299 28.7724C167.976 28.3349 167.585 28.0015 167.126 27.7724C166.667 27.5432 166.161 27.4286 165.608 27.4286ZM165.765 29.1161C166.14 29.1161 166.484 29.262 166.797 29.5536C167.121 29.8453 167.392 30.2672 167.611 30.8193C168.07 31.9963 168.388 33.2984 168.565 34.7255C168.764 36.4651 168.889 37.9026 168.941 39.038C168.972 40.0484 168.988 41.0328 168.988 41.9912C168.988 42.6682 168.967 43.3766 168.925 44.1162C168.852 45.3245 168.753 46.4547 168.628 47.5068C168.503 48.5485 168.31 49.4235 168.049 50.1318C167.747 50.9339 167.382 51.3349 166.954 51.3349C166.464 51.3349 166.02 50.9651 165.624 50.2256C165.248 49.5381 164.941 48.6943 164.701 47.6943C164.471 46.6943 164.268 45.512 164.091 44.1474C163.809 42.0537 163.668 40.2984 163.668 38.8818V38.7412C163.668 38.6266 163.679 38.0693 163.7 37.0693L163.715 36.4755C163.736 35.6005 163.814 34.5224 163.95 33.2411C164.044 32.2724 164.252 31.3141 164.576 30.3661C164.868 29.5328 165.264 29.1161 165.765 29.1161Z" fill="#111111"/>
<path d="M178.863 38.7724C179.082 39.637 179.473 40.9651 180.036 42.7568C180.652 44.7255 181.121 46.4078 181.444 47.8037C181.778 49.1891 181.976 50.4391 182.039 51.5537V51.6631C182.414 52.236 182.8 52.5224 183.197 52.5224C183.583 52.5224 183.812 52.3453 183.885 51.9912C183.916 51.8349 183.937 51.6891 183.948 51.5537C183.969 51.4183 183.979 51.262 183.979 51.0849V51.0068L183.04 48.1787C182.56 46.762 182.18 45.5953 181.898 44.6787C181.585 43.6891 181.303 42.6057 181.053 41.4287C180.813 40.2516 180.688 39.2776 180.678 38.5068L181.006 37.6787L181.382 36.7568C181.684 35.9443 181.872 35.3505 181.945 34.9755C182.091 34.2464 182.164 33.6474 182.164 33.1786C182.164 32.6786 182.117 32.1891 182.023 31.7099C181.919 31.2099 181.757 30.7307 181.538 30.2724C181.319 29.8036 181.058 29.3922 180.756 29.038C180.433 28.6734 180.041 28.387 179.582 28.1786C179.134 27.9703 178.649 27.8661 178.127 27.8661C177.783 27.8661 177.554 27.9182 177.439 28.0224C177.335 28.1161 177.282 28.2932 177.282 28.5536V32.4911C177.282 35.0328 177.262 38.1578 177.22 41.8662C177.178 45.5745 177.157 48.7047 177.157 51.2568V51.5068C177.157 51.7568 177.23 51.9703 177.376 52.1474C177.533 52.3141 177.731 52.3974 177.971 52.3974C178.315 52.3974 178.55 52.3141 178.675 52.1474C178.8 51.9808 178.863 51.7256 178.863 51.3818V38.7724ZM179.864 36.1005C179.52 36.5693 179.16 36.9807 178.784 37.3349C178.764 36.8974 178.753 36.4078 178.753 35.8661C178.753 35.0953 178.784 33.9859 178.847 32.538C178.899 30.9234 178.925 29.8557 178.925 29.3349C179.144 29.3766 179.348 29.5276 179.535 29.788C179.734 30.0484 179.895 30.3713 180.021 30.7568C180.271 31.5588 180.396 32.2776 180.396 32.913C180.396 33.0068 180.386 33.1474 180.365 33.3349L179.864 36.1005Z" fill="#111111"/>
<path d="M194.933 51.3349C194.933 50.5849 194.49 50.2099 193.603 50.2099C193.384 50.2099 193.165 50.2256 192.946 50.2568V49.0224C192.946 46.8558 192.816 43.736 192.555 39.663C192.294 35.5901 192.164 32.4703 192.164 30.3036C192.164 30.0536 192.211 29.8818 192.305 29.788C192.399 29.6943 192.555 29.6474 192.774 29.6474H193.025C193.108 29.6578 193.212 29.663 193.337 29.663C193.557 29.663 193.734 29.5797 193.869 29.413C194.015 29.2359 194.088 29.0328 194.088 28.8036C194.088 28.564 193.995 28.3609 193.807 28.1943C193.619 28.0172 193.4 27.9286 193.15 27.9286C192.503 27.9286 191.747 28.0068 190.881 28.163C190.38 28.2568 189.974 28.4026 189.661 28.6005C189.348 28.788 189.191 29.0068 189.191 29.2568C189.191 29.7672 189.442 30.0224 189.942 30.0224C190.161 30.0224 190.412 29.9755 190.693 29.8818C190.745 30.4338 190.772 31.0276 190.772 31.663L190.709 34.9286C190.709 36.6578 190.808 39.1214 191.006 42.3193C191.204 45.5276 191.303 47.9964 191.303 49.7256C191.303 50.0068 191.267 50.2047 191.194 50.3193C191.121 50.4235 191.001 50.4756 190.834 50.4756L190.537 50.4443C190.433 50.4339 190.307 50.4287 190.161 50.4287C189.515 50.4287 189.191 50.6839 189.191 51.1943C189.191 51.8297 190.114 52.1474 191.961 52.1474C192.336 52.1474 192.779 52.1318 193.291 52.1006L194.135 52.0693L194.933 51.5224V51.3349Z" fill="#111111"/>
<path d="M203.353 32.038C203.353 31.6422 203.416 31.2359 203.541 30.8193C203.666 30.3818 203.875 30.0016 204.167 29.6786C204.469 29.3557 204.808 29.1734 205.184 29.1318C205.486 29.3401 205.903 29.4443 206.435 29.4443L206.983 28.7568C206.837 28.4234 206.581 28.1474 206.216 27.9286C205.851 27.7099 205.476 27.6005 205.09 27.6005C204.318 27.6005 203.661 27.8505 203.118 28.3505C202.576 28.8297 202.174 29.413 201.914 30.1005C201.653 30.7776 201.523 31.5016 201.523 32.2724C201.523 33.2307 201.679 34.2203 201.992 35.2411C202.221 36.0016 202.493 36.7255 202.806 37.413C203.118 38.0901 203.53 38.9234 204.042 39.913L204.495 40.8037C204.986 41.7724 205.377 42.762 205.669 43.7724C205.961 44.7828 206.107 45.7412 206.107 46.6474C206.107 47.0328 206.055 47.4808 205.95 47.9912C205.856 48.5016 205.716 49.0172 205.528 49.5381C205.33 50.1006 205.059 50.5589 204.714 50.9131C204.381 51.2672 204.015 51.4443 203.619 51.4443C203.452 51.4443 203.181 51.361 202.806 51.1943C202.42 51.0381 202.101 50.9599 201.851 50.9599C201.622 50.9599 201.444 51.0433 201.319 51.2099C201.194 51.3662 201.131 51.5693 201.131 51.8193C201.131 52.0901 201.304 52.3089 201.648 52.4756C202.19 52.7568 202.847 52.8974 203.619 52.8974C204.318 52.8974 204.959 52.7099 205.544 52.3349C206.128 51.9599 206.597 51.4547 206.952 50.8193C207.285 50.2151 207.541 49.5693 207.718 48.8818C207.906 48.1943 208 47.5172 208 46.8505C208 45.8922 207.89 44.9339 207.671 43.9755C207.452 43.0068 207.16 42.1422 206.795 41.3818C206.461 40.6734 205.794 39.3349 204.793 37.3662L204.558 36.8974C204.193 36.1786 203.901 35.3974 203.682 34.5536C203.463 33.6995 203.353 32.8609 203.353 32.038Z" fill="#111111"/>
<path d="M100.175 7.70981C98.8737 7.70981 97.3549 8.2229 96.0082 9.11737C95.1772 9.66942 94.478 10.3235 93.9431 11.0031C94.6556 11.4903 95.2595 12.2332 95.7074 13.1982C96.0528 13.9425 96.2843 14.7843 96.4024 15.678C97.4281 15.4874 98.5164 15.0395 99.5124 14.378C102.045 12.6953 103.383 10.0692 102.433 8.64357C101.892 7.83104 100.786 7.70981 100.175 7.70981Z" fill="#111111"/>
<path d="M93.3039 2.47528C93.2341 2.46642 93.163 2.46192 93.0925 2.46192C91.8204 2.46192 90.5556 3.85757 89.8816 5.81395C90.2644 6.23076 90.6243 6.68702 90.9517 7.17853C91.5467 8.07172 91.9995 9.02077 92.2931 9.9695C92.9647 9.07326 93.8552 8.22708 94.9366 7.50873C95.2202 7.32053 95.5089 7.14778 95.8008 6.98856C95.7736 5.96094 95.5735 5.00078 95.2021 4.20064C94.929 3.61173 94.3189 2.6044 93.3039 2.47528Z" fill="#111111"/>
<path d="M89.1739 20.2766C88.9348 19.5305 88.5697 18.7768 88.0912 18.0586C86.8106 16.1357 84.9322 14.8437 83.4174 14.8437C83.0059 14.8437 82.6465 14.9438 82.3491 15.1414C80.9216 16.0896 81.1388 19.0279 82.8236 21.5576C83.14 22.0327 83.4945 22.465 83.8695 22.852C84.5419 23.08 85.2156 23.4353 85.8612 23.8975C86.6257 22.1431 87.8146 20.8307 89.1739 20.2766Z" fill="#111111"/>
<path d="M86.8618 27.7043C85.5812 25.7814 83.7029 24.4895 82.1884 24.4895C81.7768 24.4895 81.4175 24.5896 81.12 24.7872C79.6924 25.7356 79.9097 28.6738 81.5945 31.2035C82.875 33.1261 84.7534 34.4179 86.2679 34.4181C86.6795 34.4181 87.039 34.3179 87.3364 34.1204C88.1884 33.5545 88.2867 32.3815 88.2698 31.7326C88.2358 30.4467 87.7359 29.0161 86.8618 27.7043Z" fill="#111111"/>
<path d="M103.269 18.4183C103.556 19.4306 103.43 20.5988 102.883 21.8098C102.848 21.8872 102.811 21.9645 102.773 22.0416C102.879 22.6975 103.066 23.3703 103.338 24.0348C104.443 26.7419 106.381 28.1583 107.723 28.1583C107.957 28.1583 108.181 28.1158 108.386 28.0321C109.974 27.3854 110.345 24.4626 109.196 21.6496C108.091 18.9426 106.154 17.5262 104.812 17.5262C104.577 17.5262 104.354 17.5687 104.148 17.6524C103.76 17.8107 103.477 18.0947 103.269 18.4183Z" fill="#111111"/>
<path d="M92.866 35.2414C94.1672 35.2414 95.6861 34.7283 97.033 33.8337C98.3467 32.961 99.3615 31.8347 99.8906 30.662C100.157 30.0702 100.521 28.9501 99.9541 28.0995C99.4129 27.2868 98.3068 27.1654 97.6959 27.1654C96.3946 27.1654 94.8758 27.6785 93.5291 28.5729C90.996 30.2553 89.6583 32.8814 90.608 34.3073C91.149 35.12 92.2551 35.2414 92.866 35.2414Z" fill="#111111"/>
<path d="M92.4577 26.9644C92.7421 26.7756 93.0321 26.6024 93.325 26.4426C93.297 25.4155 93.0943 24.4563 92.7232 23.6565C92.45 23.0676 91.84 22.0603 90.825 21.9313C90.755 21.9224 90.684 21.9179 90.6135 21.9179C89.3414 21.9179 88.0766 23.3136 87.4024 25.2698C87.7854 25.6866 88.1454 26.1429 88.4728 26.6344C89.0673 27.5268 89.5203 28.475 89.8142 29.423C90.486 28.5275 91.3771 27.6821 92.4577 26.9644Z" fill="#111111"/>
<path d="M94.4783 22.844C94.8442 23.6323 95.0819 24.5302 95.1918 25.4833C96.2061 25.2878 97.2796 24.8404 98.2622 24.1878C99.5759 23.3152 100.591 22.1889 101.12 21.0164C101.387 20.4246 101.75 19.3045 101.183 18.4537C100.642 17.641 99.5361 17.5198 98.9249 17.5198C97.6236 17.5198 96.1049 18.0328 94.7583 18.9273C93.9745 19.448 93.3074 20.0593 92.7854 20.697C93.4672 21.1846 94.0451 21.9112 94.4783 22.844Z" fill="#111111"/>
<path d="M91.0437 19.7862C91.7152 18.8877 92.603 18.0386 93.6868 17.3188C93.97 17.1306 94.2587 16.958 94.5505 16.799C94.5233 15.7712 94.3237 14.8107 93.9523 14.0107C93.679 13.4218 93.0688 12.4145 92.0539 12.2855C91.9839 12.2767 91.9128 12.272 91.8422 12.272C90.5703 12.272 89.3067 13.669 88.6327 15.6252C89.0153 16.0417 89.3749 16.4976 89.7018 16.9886C90.2982 17.8838 90.7503 18.8352 91.0437 19.7862Z" fill="#111111"/>
<path d="M84.6676 5.03361C84.2559 5.03361 83.8966 5.13375 83.5991 5.33129C82.1716 6.2797 82.3889 9.21782 84.0736 11.7475C84.4667 12.338 84.9175 12.8651 85.396 13.3159C85.9687 13.5416 86.5394 13.8572 87.0896 14.2511C87.866 12.4699 89.0804 11.1438 90.466 10.6049C90.2289 9.81382 89.8492 9.01127 89.3409 8.24848C88.0603 6.32558 86.1823 5.03361 84.6676 5.03361Z" fill="#111111"/>
<path d="M110.565 20.0021C110.717 20.2972 110.858 20.603 110.988 20.92C111.478 22.1201 111.739 23.3192 111.791 24.4369C112.568 23.8178 113.476 23.2876 114.47 22.883C115.015 22.6613 115.57 22.4863 116.126 22.3545C116.707 20.2324 116.372 18.2825 115.17 17.6726C114.925 17.5482 114.648 17.4851 114.348 17.4851C113.109 17.4851 111.668 18.4752 110.565 20.0021Z" fill="#111111"/>
<path d="M114.977 11.3346C115.128 11.6293 115.269 11.9349 115.398 12.2513C115.876 13.422 116.143 14.6291 116.194 15.778C116.972 15.1551 117.882 14.6206 118.881 14.2141C119.426 13.9921 119.982 13.8169 120.539 13.6851C120.768 12.8472 120.855 12.0225 120.787 11.2668C120.728 10.6202 120.493 9.46656 119.581 9.0037C119.336 8.87925 119.059 8.81615 118.759 8.81615C117.52 8.81631 116.08 9.8077 114.977 11.3346Z" fill="#111111"/>
<path d="M118.741 6.88518C118.683 6.00664 118.466 5.07771 118.093 4.16456C116.988 1.45746 115.05 0.0412028 113.708 0.0412028C113.473 0.0412028 113.25 0.0837049 113.045 0.167421C111.457 0.813969 111.086 3.73664 112.234 6.54999C112.725 7.75212 113.381 8.69361 114.075 9.37477C115.453 7.8331 117.153 6.8921 118.741 6.88518Z" fill="#111111"/>
<path d="M125.022 4.86956C125.252 4.03159 125.341 3.2065 125.273 2.4508C125.214 1.80425 124.979 0.650573 124.067 0.187718C123.821 0.0631093 123.545 0 123.244 0C122.005 0 120.565 0.990912 119.462 2.51793C119.613 2.81271 119.754 3.1186 119.884 3.43511C120.362 4.60504 120.63 5.81153 120.681 6.95957C121.459 6.33733 122.369 5.80412 123.366 5.3981C123.911 5.17625 124.466 5.00125 125.022 4.86956Z" fill="#111111"/>
<path d="M117.589 30.5222C120.406 29.3749 122.239 27.0665 121.592 25.481C121.221 24.5724 119.998 24.0081 118.4 24.0081C117.374 24.0081 116.267 24.2377 115.2 24.672C113.739 25.2669 112.521 26.1697 111.769 27.2141C111.39 27.7412 110.811 28.7669 111.198 29.7129C111.569 30.6217 112.792 31.1861 114.39 31.1861C115.416 31.1861 116.522 30.9565 117.589 30.5222Z" fill="#111111"/>
<path d="M126.002 16.8122C125.631 15.9036 124.408 15.3393 122.811 15.3393C121.784 15.3393 120.678 15.5689 119.611 16.0032C118.812 16.3284 118.088 16.7468 117.472 17.2289C118.286 18.4453 118.537 20.1924 118.176 22.0822C118.251 22.0802 118.326 22.076 118.4 22.076C119.131 22.076 119.81 22.1678 120.421 22.3393C120.948 22.228 121.478 22.0656 122 21.8534C124.816 20.7063 126.649 18.3977 126.002 16.8122Z" fill="#111111"/>
<path d="M114.244 15.5579C114.173 14.722 113.96 13.8444 113.607 12.9807C112.502 10.2736 110.565 8.85735 109.222 8.85735C108.988 8.85735 108.764 8.89986 108.559 8.98357C107.611 9.36947 107.282 10.4996 107.169 11.1391C106.947 12.4058 107.153 13.9069 107.749 15.366C108.233 16.5514 108.877 17.4851 109.56 18.164C110.932 16.5802 112.64 15.5988 114.244 15.5579Z" fill="#111111"/>
<path d="M130.488 7.99604C130.117 7.0874 128.894 6.52296 127.296 6.52296C126.27 6.52296 125.163 6.75253 124.097 7.18705C123.249 7.53238 122.485 7.98252 121.844 8.50253C122.322 9.19077 122.62 10.069 122.714 11.0926C122.781 11.833 122.734 12.6173 122.583 13.4136C122.658 13.4117 122.735 13.4075 122.81 13.4075C123.423 13.4075 124 13.4711 124.53 13.5925C125.179 13.4856 125.839 13.3004 126.485 13.0374C129.302 11.89 131.135 9.58134 130.488 7.99604Z" fill="#111111"/>
<path d="M98.402 42.9956C97.2571 40.192 95.2468 38.725 93.8527 38.725C93.6068 38.725 93.3726 38.7696 93.1571 38.8573C92.1664 39.2606 91.8229 40.4371 91.706 41.1027C91.4758 42.4145 91.6886 43.9684 92.3049 45.4782C92.9446 47.0446 93.8543 48.1914 94.7759 48.9001C95.8573 48.9023 96.8028 49.1501 97.5544 49.6146C99.2031 48.9377 99.5916 45.909 98.402 42.9956Z" fill="#111111"/>
<path d="M107.04 52.1843C109.959 50.9954 111.857 48.5968 111.183 46.9466C110.796 45.998 109.524 45.4088 107.864 45.4088C106.802 45.4088 105.657 45.6464 104.554 46.0957C103.042 46.7114 101.781 47.6459 101.002 48.7273C100.608 49.276 100.006 50.3442 100.41 51.3333C100.797 52.2819 102.069 52.8711 103.729 52.8711C104.791 52.8711 105.936 52.6337 107.04 52.1843Z" fill="#111111"/>
<path d="M86.6226 53.2533C87.3174 52.3157 88.2468 51.43 89.3766 50.6795C89.6745 50.4816 89.978 50.3002 90.2853 50.1336C90.2184 47.6438 89.1644 45.6229 87.6798 45.4342C87.6065 45.4248 87.5318 45.4202 87.458 45.4202C86.1308 45.4202 84.8111 46.8759 84.1128 48.9139C84.5111 49.3461 84.8854 49.8198 85.2256 50.3306C85.8485 51.2657 86.321 52.2603 86.6226 53.2533Z" fill="#111111"/>
<path d="M85.0716 55.5701C85.0365 54.2388 84.519 52.758 83.6148 51.4005C82.2887 49.4097 80.3421 48.0722 78.7705 48.0722C78.3399 48.0722 77.9636 48.1771 77.652 48.3842C76.7613 48.9758 76.6583 50.1971 76.676 50.8726C76.7112 52.2037 77.2285 53.6845 78.1327 55.042C79.4588 57.0329 81.4057 58.3704 82.9772 58.3706C83.4075 58.3706 83.7839 58.2656 84.0956 58.0584C84.9863 57.4667 85.0895 56.2454 85.0716 55.5701Z" fill="#111111"/>
<path d="M97.0518 54.4797C97.3298 53.8637 97.7073 52.6975 97.115 51.8081C96.5492 50.9584 95.3977 50.8316 94.7614 50.8316C93.4137 50.8316 91.8414 51.3625 90.4479 52.2881C87.8223 54.0321 86.4391 56.7592 87.4273 58.243C87.9932 59.0924 89.1449 59.2195 89.7811 59.2195V59.2195C91.1285 59.2195 92.701 58.6887 94.0948 57.763C95.4539 56.8598 96.5042 55.6937 97.0518 54.4797Z" fill="#111111"/>
<path d="M87.924 43.5177C88.6778 43.6135 89.3594 43.9321 89.9474 44.4247C89.6561 43.1575 89.6017 41.9018 89.8005 40.7692C90.0699 39.2341 90.7723 38.0632 91.8032 37.3959C91.8119 37.2921 91.8196 37.1905 91.8275 37.0878C90.5917 36.8798 89.6061 36.2915 88.997 35.3774C88.9783 35.3492 88.962 35.3201 88.9443 35.2916C88.8692 35.3651 88.7905 35.4348 88.7096 35.5021C88.6714 36.0951 88.6261 36.7091 88.5719 37.347C88.4194 39.1441 88.192 41.2027 87.8586 43.5115C87.8803 43.5138 87.9024 43.5149 87.924 43.5177Z" fill="#111111"/>
<path d="M95.1661 59.3715C94.5578 59.7754 93.9268 60.1138 93.2886 60.3849C91.8321 65.8188 90.6093 71.7717 89.816 78.1929C89.707 79.0754 90.3349 79.8789 91.2185 79.9878C91.2856 79.996 91.352 80 91.4179 80C92.2203 80 92.9151 79.4026 93.0159 78.5871C93.986 70.7347 95.6129 63.6001 97.5226 57.2889C96.8713 58.0596 96.0733 58.7687 95.1661 59.3715Z" fill="#111111"/>
<path d="M85.8165 59.3129C85.7904 59.2736 85.7674 59.233 85.743 59.1932C85.5676 59.3686 85.3764 59.528 85.167 59.6669C84.927 59.8264 84.6721 59.956 84.4037 60.0557C83.051 65.1118 81.2972 70.7247 79.023 76.8655C78.7142 77.6994 79.1407 78.6254 79.9758 78.9339C80.1602 79.002 80.349 79.0343 80.5348 79.0343C81.1902 79.0343 81.8065 78.6322 82.047 77.9824C84.3802 71.6831 86.1757 65.9226 87.5594 60.7307C86.8305 60.4197 86.2357 59.9422 85.8165 59.3129Z" fill="#111111"/>
<path d="M103.686 36.7507C104.308 36.7507 104.893 36.8874 105.424 37.157C105.461 37.1754 105.495 37.1965 105.531 37.2158C105.77 36.7415 106.007 36.279 106.241 35.8333C107.312 33.7873 108.36 31.9376 109.351 30.2828C109.292 30.1176 109.243 29.9502 109.209 29.7797C109.178 29.7932 109.148 29.8083 109.117 29.8211C108.678 29.9996 108.209 30.0902 107.723 30.0902C107.128 30.0902 106.528 29.9579 105.942 29.7103C105.134 31.0971 104.294 32.6051 103.438 34.2373C102.971 35.1277 102.49 36.075 102.001 37.0727C102.565 36.8635 103.132 36.7507 103.686 36.7507Z" fill="#111111"/>
<path d="M104.548 38.8793C104.291 38.7487 104.001 38.6826 103.686 38.6826C102.396 38.6826 100.895 39.7142 99.7497 41.3045C99.9088 41.6135 100.057 41.9338 100.193 42.2661C100.706 43.5217 100.975 44.776 101.022 45.9417C101.83 45.2891 102.781 44.7311 103.823 44.3067C104.389 44.0762 104.967 43.8949 105.545 43.759C105.786 42.8856 105.88 42.0251 105.808 41.2371C105.747 40.5643 105.502 39.3631 104.548 38.8793Z" fill="#111111"/>
</svg>
