<svg width="70" height="70" viewBox="0 0 70 70" fill="none" xmlns="http://www.w3.org/2000/svg">
<path d="M31.9668 6.74609C30.8297 6.74609 29.5026 7.19504 28.3258 7.97771C27.5996 8.46075 26.9886 9.0331 26.5212 9.6277C27.1439 10.054 27.6716 10.7041 28.0629 11.5484C28.3648 12.1997 28.5671 12.9363 28.6702 13.7182C29.5665 13.5515 30.5175 13.1596 31.3878 12.5807C33.601 11.1084 34.7698 8.81052 33.94 7.56313C33.4672 6.85217 32.5008 6.74609 31.9668 6.74609Z" fill="#111111"/>
<path d="M25.9627 2.16587C25.9017 2.15812 25.8395 2.15417 25.778 2.15417C24.6664 2.15417 23.5611 3.37536 22.9722 5.0872C23.3067 5.45191 23.6211 5.85113 23.9073 6.2812C24.4272 7.06274 24.8229 7.89316 25.0794 8.7233C25.6663 7.93908 26.4444 7.19868 27.3894 6.57012C27.6372 6.40545 27.8895 6.2543 28.1446 6.11498C28.1208 5.21581 27.946 4.37567 27.6214 3.67556C27.3828 3.16026 26.8496 2.27884 25.9627 2.16587Z" fill="#111111"/>
<path d="M22.3537 17.742C22.1448 17.0892 21.8258 16.4296 21.4077 15.8012C20.2886 14.1187 18.6472 12.9882 17.3236 12.9882C16.964 12.9882 16.65 13.0758 16.3901 13.2487C15.1427 14.0784 15.3324 16.6494 16.8046 18.8629C17.0812 19.2786 17.3909 19.6568 17.7186 19.9955C18.3062 20.1949 18.8949 20.5058 19.459 20.9103C20.127 19.3752 21.1659 18.2268 22.3537 17.742Z" fill="#111111"/>
<path d="M20.3334 24.2412C19.2143 22.5587 17.5731 21.4282 16.2496 21.4282C15.89 21.4282 15.576 21.5158 15.3161 21.6887C14.0686 22.5185 14.2585 25.0895 15.7307 27.303C16.8496 28.9853 18.491 30.1156 19.8144 30.1157C19.8146 30.1157 19.8146 30.1157 19.8146 30.1157C20.1742 30.1157 20.4882 30.0281 20.7481 29.8553C21.4926 29.3601 21.5785 28.3337 21.5637 27.7659C21.534 26.6408 21.0972 25.389 20.3334 24.2412Z" fill="#111111"/>
<path d="M34.6701 16.1159C34.9213 17.0017 34.8108 18.0239 34.3334 19.0835C34.3028 19.1512 34.2704 19.2188 34.2371 19.2863C34.3293 19.8602 34.4934 20.4489 34.7307 21.0304C35.6967 23.3991 37.3894 24.6385 38.5623 24.6385C38.7674 24.6385 38.9625 24.6013 39.1423 24.528C40.5297 23.9622 40.8537 21.4047 39.85 18.9433C38.8842 16.5747 37.1915 15.3354 36.0186 15.3354C35.8135 15.3354 35.6184 15.3726 35.4388 15.4458C35.0995 15.5843 34.852 15.8328 34.6701 16.1159Z" fill="#111111"/>
<path d="M25.58 30.8362H25.5803C26.7173 30.8362 28.0442 30.3872 29.2212 29.6044C30.3691 28.8408 31.2559 27.8553 31.7182 26.8292C31.9514 26.3113 32.2689 25.3313 31.7737 24.587C31.3008 23.8759 30.3343 23.7697 29.8005 23.7697C28.6634 23.7697 27.3362 24.2186 26.1594 25.0013C23.946 26.4733 22.777 28.7712 23.6069 30.0189C24.0796 30.73 25.0461 30.8362 25.58 30.8362Z" fill="#111111"/>
<path d="M25.2233 23.5938C25.4718 23.4286 25.7252 23.277 25.9812 23.1373C25.9566 22.2385 25.7796 21.3992 25.4553 20.6994C25.2165 20.1841 24.6835 19.3027 23.7966 19.1899C23.7354 19.1821 23.6733 19.1782 23.6117 19.1782C22.5002 19.1782 21.3949 20.3994 20.8058 22.111C21.1405 22.4758 21.455 22.875 21.7412 23.305C22.2607 24.0859 22.6565 24.9156 22.9133 25.745C23.5003 24.9615 24.279 24.2218 25.2233 23.5938Z" fill="#111111"/>
<path d="M26.9889 19.9884C27.3087 20.6783 27.5163 21.4639 27.6124 22.2978C28.4987 22.1268 29.4368 21.7354 30.2954 21.1643C31.4433 20.4008 32.3301 19.4152 32.7923 18.3893C33.0256 17.8715 33.3429 16.8914 32.8479 16.147C32.375 15.4358 31.4085 15.3298 30.8745 15.3298C29.7374 15.3298 28.4103 15.7787 27.2336 16.5614C26.5487 17.017 25.9658 17.5518 25.5096 18.1098C26.1054 18.5365 26.6104 19.1722 26.9889 19.9884Z" fill="#111111"/>
<path d="M23.9877 17.3129C24.5744 16.5267 25.3502 15.7837 26.2972 15.1539C26.5447 14.9892 26.797 14.8382 27.052 14.6991C27.0282 13.7998 26.8538 12.9593 26.5292 12.2594C26.2905 11.7441 25.7573 10.8626 24.8704 10.7498C24.8092 10.7421 24.7471 10.738 24.6854 10.738C23.574 10.738 22.4698 11.9603 21.8809 13.672C22.2151 14.0364 22.5294 14.4354 22.8151 14.865C23.3362 15.6482 23.7313 16.4808 23.9877 17.3129Z" fill="#111111"/>
<path d="M18.416 4.40442C18.0563 4.40442 17.7423 4.49204 17.4824 4.66489C16.235 5.49474 16.4249 8.06559 17.8969 10.2791C18.2405 10.7958 18.6344 11.257 19.0525 11.6514C19.553 11.8489 20.0517 12.125 20.5325 12.4697C21.2109 10.9111 22.2721 9.7508 23.4828 9.27932C23.2756 8.58709 22.9439 7.88486 22.4997 7.21742C21.3806 5.53489 19.7397 4.40442 18.416 4.40442Z" fill="#111111"/>
<path d="M41.0463 17.5018C41.1785 17.76 41.3022 18.0276 41.4153 18.305C41.8434 19.355 42.0719 20.4042 42.1174 21.3823C42.7959 20.8405 43.5898 20.3766 44.4583 20.0226C44.9341 19.8286 45.4196 19.6755 45.9053 19.5602C46.413 17.7034 46.1204 15.9972 45.0702 15.4636C44.8558 15.3547 44.6141 15.2994 44.3515 15.2994C43.2692 15.2994 42.0101 16.1658 41.0463 17.5018Z" fill="#111111"/>
<path d="M44.9008 9.91772C45.033 10.1756 45.1564 10.443 45.2693 10.7198C45.6871 11.7442 45.9201 12.8005 45.9644 13.8057C46.6448 13.2607 47.4398 12.793 48.3122 12.4373C48.7886 12.243 49.2749 12.0898 49.7612 11.9744C49.9616 11.2413 50.038 10.5197 49.978 9.85841C49.9267 9.29268 49.7216 8.28322 48.9244 7.87822C48.71 7.76933 48.4683 7.71411 48.2057 7.71411C47.1233 7.71425 45.8646 8.58172 44.9008 9.91772Z" fill="#111111"/>
<path d="M48.1904 6.02454C48.1397 5.25582 47.9496 4.443 47.6237 3.644C46.6581 1.27529 44.9653 0.0360718 43.7924 0.0360718C43.5873 0.0360718 43.3922 0.0732611 43.2126 0.146513C41.8251 0.712241 41.501 3.26957 42.5044 5.73125C42.9335 6.78311 43.5063 7.60691 44.1129 8.20293C45.3174 6.85397 46.8023 6.03059 48.1904 6.02454Z" fill="#111111"/>
<path d="M53.6788 4.26085C53.8795 3.52763 53.9578 2.80568 53.8978 2.14444C53.8465 1.57871 53.6414 0.56925 52.8443 0.164253C52.6297 0.0552205 52.388 0 52.1254 0C51.0427 0 49.7839 0.867046 48.8202 2.20319C48.9523 2.46112 49.0759 2.72877 49.1888 3.00571C49.6064 4.02941 49.8411 5.08507 49.8856 6.08961C50.5654 5.54515 51.3603 5.07859 52.2319 4.72332C52.7077 4.52921 53.1932 4.37608 53.6788 4.26085Z" fill="#111111"/>
<path d="M47.1837 26.7068C49.6452 25.703 51.2469 23.6831 50.6812 22.2958C50.3571 21.5008 49.2884 21.007 47.8924 21.007C46.9955 21.007 46.0287 21.2079 45.0965 21.588C43.8196 22.1085 42.7548 22.8985 42.0982 23.8123C41.7666 24.2735 41.2612 25.171 41.5987 25.9987C41.923 26.7939 42.9916 27.2878 44.3879 27.2878C45.2849 27.2878 46.2516 27.0869 47.1837 26.7068Z" fill="#111111"/>
<path d="M54.5353 14.7106C54.2112 13.9156 53.1425 13.4218 51.7464 13.4218C50.8495 13.4218 49.8827 13.6227 48.9504 14.0028C48.2526 14.2873 47.6201 14.6534 47.0811 15.0752C47.7931 16.1396 48.0118 17.6683 47.6969 19.3218C47.7621 19.3201 47.8277 19.3165 47.8924 19.3165C48.5314 19.3165 49.1241 19.3968 49.6586 19.5468C50.1185 19.4494 50.5821 19.3073 51.0377 19.1216C53.4991 18.118 55.1009 16.0979 54.5353 14.7106Z" fill="#111111"/>
<path d="M44.2606 13.6131C44.1984 12.8817 44.0121 12.1139 43.7041 11.3581C42.7384 8.9894 41.0457 7.75018 39.8727 7.75018C39.6676 7.75018 39.4725 7.78737 39.2929 7.86062C38.4649 8.19829 38.1768 9.18718 38.0788 9.74671C37.8845 10.8551 38.0643 12.1685 38.5848 13.4452C39.0078 14.4824 39.5704 15.2995 40.1674 15.8935C41.3663 14.5077 42.8587 13.6489 44.2606 13.6131Z" fill="#111111"/>
<path d="M58.4548 6.99653C58.1307 6.20147 57.0621 5.70758 55.6661 5.70758C54.769 5.70758 53.8024 5.90846 52.8701 6.28866C52.1292 6.59083 51.4617 6.9847 50.9019 7.4397C51.319 8.04191 51.5802 8.81035 51.6616 9.706C51.7204 10.3538 51.6791 11.0402 51.5471 11.7369C51.6134 11.7352 51.6804 11.7315 51.7463 11.7315C52.2819 11.7315 52.7855 11.7872 53.2492 11.8934C53.8159 11.7999 54.3926 11.6379 54.9572 11.4077C57.4188 10.4037 59.0206 8.38366 58.4548 6.99653Z" fill="#111111"/>
<path d="M30.4176 37.6211C29.4171 35.1679 27.6605 33.8843 26.4423 33.8843C26.2274 33.8843 26.0227 33.9233 25.8344 34.0001C24.9688 34.3529 24.6686 35.3824 24.5664 35.9648C24.3653 37.1126 24.5512 38.4722 25.0898 39.7933C25.6487 41.1639 26.4437 42.1674 27.249 42.7875C28.194 42.7894 29.0202 43.0062 29.6769 43.4126C31.1175 42.8204 31.457 40.1703 30.4176 37.6211Z" fill="#111111"/>
<path d="M37.9654 45.6612C40.5167 44.6209 42.175 42.5221 41.5863 41.0782C41.2479 40.2482 40.1366 39.7326 38.6859 39.7326C37.7576 39.7326 36.7573 39.9405 35.7931 40.3337C34.4719 40.8724 33.3699 41.6901 32.6899 42.6363C32.345 43.1164 31.819 44.0511 32.1719 44.9166C32.5103 45.7466 33.6216 46.2622 35.0723 46.2622C36.0006 46.2622 37.0009 46.0544 37.9654 45.6612Z" fill="#111111"/>
<path d="M20.1244 46.5965C20.7315 45.7761 21.5436 45.0012 22.5309 44.3444C22.7912 44.1713 23.0564 44.0126 23.3249 43.8668C23.2665 41.6882 22.3455 39.9199 21.0482 39.7548C20.9841 39.7466 20.9189 39.7426 20.8544 39.7426C19.6946 39.7426 18.5415 41.0163 17.9312 42.7995C18.2793 43.1778 18.6064 43.5922 18.9036 44.0392C19.4479 44.8574 19.8608 45.7276 20.1244 46.5965Z" fill="#111111"/>
<path d="M18.7691 48.6237C18.7384 47.4589 18.2862 46.1632 17.4961 44.9754C16.3373 43.2334 14.6363 42.063 13.263 42.063C12.8867 42.063 12.5579 42.1549 12.2856 42.3361C11.5073 42.8537 11.4173 43.9224 11.4328 44.5135C11.4635 45.6782 11.9156 46.9739 12.7057 48.1617C13.8645 49.9037 15.5657 51.074 16.9389 51.0741C16.9389 51.0741 16.9391 51.0741 16.9392 51.0741C17.3152 51.0741 17.6438 50.9823 17.9163 50.801C18.6946 50.2833 18.7847 49.2147 18.7691 48.6237Z" fill="#111111"/>
<path d="M29.2377 47.6696C29.4806 47.1307 29.8105 46.1102 29.293 45.332C28.7985 44.5885 27.7923 44.4775 27.2363 44.4775C26.0586 44.4775 24.6847 44.9421 23.467 45.752C21.1727 47.278 19.9641 49.6642 20.8276 50.9626C21.322 51.7058 22.3284 51.8169 22.8844 51.8169C22.8846 51.8169 22.8847 51.8169 22.8848 51.8169C24.0622 51.8169 25.4358 51.3525 26.6538 50.5425C27.8414 49.7522 28.7592 48.7319 29.2377 47.6696Z" fill="#111111"/>
<path d="M21.2616 38.0779C21.9203 38.1617 22.5159 38.4405 23.0296 38.8715C22.7751 37.7628 22.7276 36.664 22.9013 35.673C23.1367 34.3298 23.7505 33.3053 24.6513 32.7214C24.6589 32.6305 24.6657 32.5416 24.6726 32.4517C23.5927 32.2697 22.7314 31.755 22.1992 30.9551C22.1829 30.9305 22.1687 30.905 22.1532 30.8801C22.0875 30.9444 22.0188 31.0054 21.9481 31.0643C21.9147 31.5831 21.8751 32.1204 21.8278 32.6785C21.6945 34.251 21.4957 36.0523 21.2044 38.0725C21.2234 38.0745 21.2427 38.0755 21.2616 38.0779Z" fill="#111111"/>
<path d="M27.5899 51.95C27.0584 52.3034 26.507 52.5995 25.9493 52.8367C24.6766 57.5913 23.6081 62.8001 22.9149 68.4186C22.8196 69.1909 23.3683 69.8939 24.1404 69.9892C24.199 69.9963 24.257 69.9999 24.3147 69.9999C25.0158 69.9999 25.6229 69.4771 25.711 68.7636C26.5587 61.8927 27.9803 55.65 29.6491 50.1277C29.08 50.802 28.3827 51.4225 27.5899 51.95Z" fill="#111111"/>
<path d="M19.42 51.8987C19.3972 51.8643 19.3771 51.8288 19.3558 51.794C19.2025 51.9474 19.0354 52.0869 18.8525 52.2084C18.6427 52.348 18.42 52.4614 18.1854 52.5486C17.0034 56.9728 15.4709 61.884 13.4837 67.2572C13.2138 67.9869 13.5865 68.7971 14.3162 69.067C14.4774 69.1266 14.6423 69.1549 14.8047 69.1549C15.3774 69.1549 15.9159 68.803 16.1261 68.2345C18.1649 62.7226 19.7339 57.6822 20.9429 53.1393C20.3061 52.8671 19.7863 52.4493 19.42 51.8987Z" fill="#111111"/>
<path d="M35.0352 32.1568C35.5786 32.1568 36.0896 32.2764 36.554 32.5123C36.5856 32.5284 36.6158 32.5468 36.6466 32.5638C36.8561 32.1488 37.0633 31.744 37.2672 31.3541C38.203 29.5638 39.1188 27.9454 39.9847 26.4974C39.9338 26.3529 39.8907 26.2064 39.8607 26.0572C39.8339 26.069 39.8079 26.0822 39.7806 26.0934C39.3971 26.2496 38.9873 26.3289 38.5623 26.3289C38.0427 26.3289 37.5182 26.2131 37.006 25.9965C36.3 27.2099 35.5663 28.5294 34.818 29.9575C34.4098 30.7367 33.9897 31.5656 33.5623 32.4385C34.0549 32.2555 34.5509 32.1568 35.0352 32.1568Z" fill="#111111"/>
<path d="M35.7882 34.0193C35.5634 33.9051 35.31 33.8472 35.0352 33.8472C33.9072 33.8472 32.5956 34.7499 31.5952 36.1414C31.7342 36.4117 31.8641 36.692 31.9827 36.9828C32.4306 38.0814 32.6656 39.1789 32.7066 40.1989C33.4132 39.6279 34.2442 39.1396 35.1549 38.7683C35.6495 38.5666 36.1542 38.4079 36.659 38.289C36.8697 37.5248 36.9517 36.7719 36.8891 36.0823C36.8355 35.4936 36.6215 34.4426 35.7882 34.0193Z" fill="#111111"/>
</svg>
