<svg width="40" height="32" viewBox="0 0 40 32" fill="none" xmlns="http://www.w3.org/2000/svg">
<path id="&#226;&#128;&#156;" fill-rule="evenodd" clip-rule="evenodd" d="M4.5962 8.12139C1.53205 11.7983 0 15.9109 0 20.4592C0 23.4347 0.97206 26.1021 2.91621 28.4612C4.86036 30.8204 7.3539 32 10.3969 32C13.2286 32 15.2467 31.1817 16.4512 29.5452C17.6557 27.9086 18.258 26.219 18.258 24.4762C18.258 22.2658 17.4867 20.5974 15.9441 19.4709C14.4014 18.3444 12.8482 17.7812 11.2845 17.7812C11.0309 17.7812 9.55165 17.93 6.84675 18.2276C6.21279 18.2276 5.76902 18.0682 5.51544 17.7493C5.26185 17.4305 5.13506 17.0373 5.13506 16.5698C5.13506 13.9768 6.18108 11.437 8.27316 8.95029C10.0743 6.80936 13.938 3.98582 15.2875 2.99958C15.5055 2.84029 15.6578 2.72893 15.7254 2.67611C16.2109 2.29626 16.8686 1.57467 16.4512 0.710643C16.0339 -0.153382 15.0631 -0.0593095 14.6444 0.119346C11.2845 1.55328 7.66035 4.44447 4.5962 8.12139ZM26.3382 8.12139C23.274 11.7983 21.742 15.9109 21.742 20.4592C21.742 23.4347 22.7141 26.1021 24.6582 28.4612C26.6024 30.8204 29.0959 32 32.1389 32C34.9706 32 36.9887 31.1817 38.1932 29.5452C39.3977 27.9086 40 26.219 40 24.4762C40 22.2658 39.2287 20.5974 37.6861 19.4709C36.1434 18.3444 34.5902 17.7812 33.0265 17.7812C32.7729 17.7812 31.2937 17.93 28.5887 18.2276C27.9548 18.2276 27.511 18.0682 27.2574 17.7493C27.0039 17.4305 26.8771 17.0373 26.8771 16.5698C26.8771 13.9768 27.9231 11.437 30.0152 8.95029C31.8163 6.80936 35.6799 3.98583 37.0295 2.99958C37.2474 2.8403 37.3998 2.72893 37.4674 2.67611C37.9529 2.29626 38.6106 1.57467 38.1932 0.710643C37.7759 -0.153382 36.8051 -0.0593095 36.3864 0.119346C33.0265 1.55328 29.4023 4.44447 26.3382 8.12139Z" fill="#E4D9D1"/>
</svg>
